<mxfile host="app.diagrams.net" modified="2024-02-12T15:20:29.790Z" agent="Mozilla/5.0 (Macintosh; Intel Mac OS X 10_15_7) AppleWebKit/537.36 (KHTML, like Gecko) Chrome/121.0.0.0 Safari/537.36" etag="kHMD2xMv9EzKIyX1TQqo" version="23.1.2" type="github">
  <diagram name="Page-1" id="66oJAuS9Msnd-EOgXBvs">
    <mxGraphModel dx="954" dy="640" grid="1" gridSize="10" guides="1" tooltips="1" connect="1" arrows="1" fold="1" page="1" pageScale="1" pageWidth="827" pageHeight="1169" math="0" shadow="0">
      <root>
        <mxCell id="0" />
        <mxCell id="1" parent="0" />
        <mxCell id="gqluktCLmy3stau5jVGF-11" value="" style="rounded=1;whiteSpace=wrap;html=1;fillColor=none;strokeWidth=4;dashed=1;strokeColor=#B3B3B3;" vertex="1" parent="1">
          <mxGeometry x="50" y="240" width="730" height="160" as="geometry" />
        </mxCell>
        <mxCell id="gqluktCLmy3stau5jVGF-2" value="&lt;font style=&quot;font-size: 17px;&quot;&gt;LuxeCosmetics Inc.&lt;/font&gt;" style="rounded=1;whiteSpace=wrap;html=1;fillColor=#3DCCA8;strokeColor=#000000;strokeWidth=5;" vertex="1" parent="1">
          <mxGeometry x="301" y="130" width="226" height="60" as="geometry" />
        </mxCell>
        <mxCell id="gqluktCLmy3stau5jVGF-3" value="&lt;font style=&quot;font-size: 17px;&quot;&gt;Luminara&lt;/font&gt;" style="rounded=1;whiteSpace=wrap;html=1;fillColor=#FFFFFF;strokeColor=#000000;strokeWidth=5;" vertex="1" parent="1">
          <mxGeometry x="60" y="290" width="226" height="60" as="geometry" />
        </mxCell>
        <mxCell id="gqluktCLmy3stau5jVGF-5" value="" style="endArrow=none;html=1;rounded=0;entryX=0.5;entryY=1;entryDx=0;entryDy=0;exitX=0.5;exitY=0;exitDx=0;exitDy=0;strokeWidth=4;" edge="1" parent="1" source="gqluktCLmy3stau5jVGF-3" target="gqluktCLmy3stau5jVGF-2">
          <mxGeometry width="50" height="50" relative="1" as="geometry">
            <mxPoint x="251" y="290" as="sourcePoint" />
            <mxPoint x="301" y="240" as="targetPoint" />
          </mxGeometry>
        </mxCell>
        <mxCell id="gqluktCLmy3stau5jVGF-6" value="&lt;font style=&quot;font-size: 17px;&quot;&gt;Ã‰clatant&lt;/font&gt;" style="rounded=1;whiteSpace=wrap;html=1;fillColor=#FFFFFF;strokeColor=#000000;strokeWidth=5;" vertex="1" parent="1">
          <mxGeometry x="301" y="290" width="226" height="60" as="geometry" />
        </mxCell>
        <mxCell id="gqluktCLmy3stau5jVGF-7" value="&lt;font style=&quot;font-size: 17px;&quot;&gt;Dermaglow&lt;/font&gt;" style="rounded=1;whiteSpace=wrap;html=1;fillColor=#FFFFFF;strokeColor=#000000;strokeWidth=5;" vertex="1" parent="1">
          <mxGeometry x="540" y="290" width="226" height="60" as="geometry" />
        </mxCell>
        <mxCell id="gqluktCLmy3stau5jVGF-8" value="" style="endArrow=none;html=1;rounded=0;entryX=0.25;entryY=1;entryDx=0;entryDy=0;strokeWidth=4;" edge="1" parent="1" source="gqluktCLmy3stau5jVGF-6">
          <mxGeometry width="50" height="50" relative="1" as="geometry">
            <mxPoint x="230" y="290" as="sourcePoint" />
            <mxPoint x="415" y="190" as="targetPoint" />
          </mxGeometry>
        </mxCell>
        <mxCell id="gqluktCLmy3stau5jVGF-9" value="" style="endArrow=none;html=1;rounded=0;entryX=0.25;entryY=1;entryDx=0;entryDy=0;exitX=0.5;exitY=0;exitDx=0;exitDy=0;strokeWidth=4;" edge="1" parent="1" source="gqluktCLmy3stau5jVGF-7">
          <mxGeometry width="50" height="50" relative="1" as="geometry">
            <mxPoint x="229" y="290" as="sourcePoint" />
            <mxPoint x="414" y="190" as="targetPoint" />
          </mxGeometry>
        </mxCell>
        <mxCell id="gqluktCLmy3stau5jVGF-12" value="&lt;font color=&quot;#808080&quot;&gt;Collections&lt;/font&gt;" style="text;html=1;strokeColor=none;fillColor=none;align=center;verticalAlign=middle;whiteSpace=wrap;rounded=0;" vertex="1" parent="1">
          <mxGeometry x="70" y="250" width="60" height="30" as="geometry" />
        </mxCell>
      </root>
    </mxGraphModel>
  </diagram>
</mxfile>
